<?xml version="1.0" encoding="UTF-8"?>
<svg id="LOGO_ORIGINAL_copia_2" data-name="LOGO ORIGINAL copia 2" xmlns="http://www.w3.org/2000/svg" xmlns:xlink="http://www.w3.org/1999/xlink" viewBox="0 0 296.35 274.23">
  <defs>
    <style>
      .cls-1, .cls-2 {
        fill: none;
      }

      .cls-2 {
        stroke: #75c1d5;
        stroke-miterlimit: 10;
        stroke-width: 1.5px;
      }

      .cls-3 {
        fill: #1d1d1b;
      }

      .cls-4 {
        fill: url(#Degradado_sin_nombre_50-4);
      }

      .cls-5 {
        fill: url(#Degradado_sin_nombre_50-3);
      }

      .cls-6 {
        fill: url(#Degradado_sin_nombre_50-2);
      }

      .cls-7 {
        fill: url(#Degradado_sin_nombre_50-8);
      }

      .cls-8 {
        fill: url(#Degradado_sin_nombre_50-5);
      }

      .cls-9 {
        fill: url(#Degradado_sin_nombre_50-6);
      }

      .cls-10 {
        fill: url(#Degradado_sin_nombre_50-7);
      }

      .cls-11 {
        fill: url(#Degradado_sin_nombre_50-9);
      }

      .cls-12 {
        clip-path: url(#clippath-1);
      }

      .cls-13 {
        clip-path: url(#clippath-3);
      }

      .cls-14 {
        clip-path: url(#clippath-4);
      }

      .cls-15 {
        clip-path: url(#clippath-2);
      }

      .cls-16 {
        clip-path: url(#clippath-6);
      }

      .cls-17 {
        clip-path: url(#clippath-5);
      }

      .cls-18 {
        fill: #75c1d5;
      }

      .cls-19 {
        fill: url(#Degradado_sin_nombre_50);
      }

      .cls-20 {
        fill: url(#Degradado_sin_nombre_50-16);
      }

      .cls-21 {
        fill: url(#Degradado_sin_nombre_50-17);
      }

      .cls-22 {
        fill: url(#Degradado_sin_nombre_50-14);
      }

      .cls-23 {
        fill: url(#Degradado_sin_nombre_50-12);
      }

      .cls-24 {
        fill: url(#Degradado_sin_nombre_50-11);
      }

      .cls-25 {
        fill: url(#Degradado_sin_nombre_50-10);
      }

      .cls-26 {
        fill: url(#Degradado_sin_nombre_50-13);
      }

      .cls-27 {
        fill: url(#Degradado_sin_nombre_50-15);
        opacity: .26;
      }

      .cls-28 {
        clip-path: url(#clippath);
      }
    </style>
    <clipPath id="clippath">
      <path class="cls-1" d="M61.14,146.92c-2.69,0-4.88-2.19-4.88-4.88s2.19-4.88,4.88-4.88,4.88,2.19,4.88,4.88-2.19,4.88-4.88,4.88ZM61.14,139.17c-1.59,0-2.88,1.29-2.88,2.88s1.29,2.88,2.88,2.88,2.88-1.29,2.88-2.88-1.29-2.88-2.88-2.88Z"/>
    </clipPath>
    <linearGradient id="Degradado_sin_nombre_50" data-name="Degradado sin nombre 50" x1="147.1" y1="15.83" x2="147.1" y2="258.51" gradientUnits="userSpaceOnUse">
      <stop offset="0" stop-color="#69d048"/>
      <stop offset="1" stop-color="#328b28"/>
    </linearGradient>
    <clipPath id="clippath-1">
      <path class="cls-1" d="M235.21,146.92c-2.69,0-4.88-2.19-4.88-4.88s2.19-4.88,4.88-4.88,4.88,2.19,4.88,4.88-2.19,4.88-4.88,4.88ZM235.21,139.17c-1.59,0-2.88,1.29-2.88,2.88s1.29,2.88,2.88,2.88,2.88-1.29,2.88-2.88-1.29-2.88-2.88-2.88Z"/>
    </clipPath>
    <clipPath id="clippath-2">
      <polygon class="cls-1" points="131.68 240.87 60.14 193.17 60.14 152.18 62.14 152.18 62.14 192.1 132.79 239.21 131.68 240.87"/>
    </clipPath>
    <clipPath id="clippath-3">
      <polygon class="cls-1" points="164.43 240.87 163.32 239.21 233.97 192.1 233.97 152.18 235.97 152.18 235.97 193.17 164.43 240.87"/>
    </clipPath>
    <clipPath id="clippath-4">
      <polygon class="cls-1" points="164.43 240.87 163.32 239.21 233.97 192.1 233.97 152.18 235.97 152.18 235.97 193.17 164.43 240.87"/>
    </clipPath>
    <clipPath id="clippath-5">
      <polygon class="cls-1" points="146.01 32.29 147.12 33.96 62.14 89.62 62.14 131.5 60.14 131.5 60.14 88.55 146.01 32.29"/>
    </clipPath>
    <clipPath id="clippath-6">
      <polygon class="cls-1" points="150.1 32.29 148.99 33.96 233.97 89.62 233.97 131.5 235.97 131.5 235.97 88.55 150.1 32.29"/>
    </clipPath>
    <linearGradient id="Degradado_sin_nombre_50-2" data-name="Degradado sin nombre 50" x1="158.71" y1="18.1" x2="158.71" y2="256.13" xlink:href="#Degradado_sin_nombre_50"/>
    <linearGradient id="Degradado_sin_nombre_50-3" data-name="Degradado sin nombre 50" x1="204.91" y1="18.1" x2="204.91" y2="256.13" xlink:href="#Degradado_sin_nombre_50"/>
    <linearGradient id="Degradado_sin_nombre_50-4" data-name="Degradado sin nombre 50" x1="133.38" y1="18.1" x2="133.38" y2="256.13" xlink:href="#Degradado_sin_nombre_50"/>
    <linearGradient id="Degradado_sin_nombre_50-5" data-name="Degradado sin nombre 50" x1="162.8" y1="18.1" x2="162.8" y2="256.13" xlink:href="#Degradado_sin_nombre_50"/>
    <linearGradient id="Degradado_sin_nombre_50-6" data-name="Degradado sin nombre 50" x1="190.94" y1="18.1" x2="190.94" y2="256.13" xlink:href="#Degradado_sin_nombre_50"/>
    <linearGradient id="Degradado_sin_nombre_50-7" data-name="Degradado sin nombre 50" x1="91.38" y1="18.1" x2="91.38" y2="256.13" xlink:href="#Degradado_sin_nombre_50"/>
    <linearGradient id="Degradado_sin_nombre_50-8" data-name="Degradado sin nombre 50" x1="103.85" y1="18.1" x2="103.85" y2="256.13" xlink:href="#Degradado_sin_nombre_50"/>
    <linearGradient id="Degradado_sin_nombre_50-9" data-name="Degradado sin nombre 50" x1="111.88" y1="18.1" x2="111.88" y2="256.13" xlink:href="#Degradado_sin_nombre_50"/>
    <linearGradient id="Degradado_sin_nombre_50-10" data-name="Degradado sin nombre 50" x1="132.12" y1="18.1" x2="132.12" y2="256.13" xlink:href="#Degradado_sin_nombre_50"/>
    <linearGradient id="Degradado_sin_nombre_50-11" data-name="Degradado sin nombre 50" x1="137.12" y1="18.1" x2="137.12" y2="256.13" xlink:href="#Degradado_sin_nombre_50"/>
    <linearGradient id="Degradado_sin_nombre_50-12" data-name="Degradado sin nombre 50" x1="148.77" y1="18.1" x2="148.77" y2="256.13" xlink:href="#Degradado_sin_nombre_50"/>
    <linearGradient id="Degradado_sin_nombre_50-13" data-name="Degradado sin nombre 50" x1="183.8" y1="18.1" x2="183.8" y2="256.13" xlink:href="#Degradado_sin_nombre_50"/>
    <linearGradient id="Degradado_sin_nombre_50-14" data-name="Degradado sin nombre 50" x1="163.56" y1="18.1" x2="163.56" y2="256.13" xlink:href="#Degradado_sin_nombre_50"/>
    <linearGradient id="Degradado_sin_nombre_50-15" data-name="Degradado sin nombre 50" x1="128.4" y1="103.03" x2="128.4" y2="103.1" xlink:href="#Degradado_sin_nombre_50"/>
    <linearGradient id="Degradado_sin_nombre_50-16" data-name="Degradado sin nombre 50" x1="128.4" y1="18.1" x2="128.4" y2="256.13" xlink:href="#Degradado_sin_nombre_50"/>
    <linearGradient id="Degradado_sin_nombre_50-17" data-name="Degradado sin nombre 50" x1="147.9" y1="18.1" x2="147.9" y2="256.13" xlink:href="#Degradado_sin_nombre_50"/>
  </defs>
  <g id="Logo">
    <g id="Capa_101" data-name="Capa 101">
      <g>
        <polyline class="cls-2" points="95.41 153.25 73.66 153.25 64.23 144.39"/>
        <polyline class="cls-2" points="102.71 161.09 75.53 161.09 75.53 173.39"/>
        <polyline class="cls-2" points="102.71 189.16 96.92 189.16 84 177.57 79.01 177.57"/>
        <line class="cls-2" x1="111.8" y1="198.43" x2="88.63" y2="198.43"/>
        <circle class="cls-2" cx="75.13" cy="177.26" r="3.88"/>
        <circle class="cls-2" cx="85.25" cy="198.43" r="3.88"/>
        <polyline class="cls-2" points="200.28 153.25 222.02 153.25 231.46 144.39"/>
        <polyline class="cls-2" points="192.97 161.09 220.15 161.09 220.15 173.39"/>
        <polyline class="cls-2" points="192.97 189.16 198.76 189.16 211.68 177.57 216.67 177.57"/>
        <line class="cls-2" x1="183.88" y1="198.43" x2="207.05" y2="198.43"/>
        <circle class="cls-2" cx="220.55" cy="177.26" r="3.88"/>
        <circle class="cls-2" cx="210.44" cy="198.43" r="3.88"/>
        <circle class="cls-2" cx="220.15" cy="98.33" r="3.37"/>
        <circle class="cls-2" cx="85.76" cy="99" r="3.37"/>
        <circle class="cls-2" cx="75.53" cy="98.33" r="3.37"/>
        <polyline class="cls-2" points="81.39 115.64 76.16 110.18 76.16 101.7"/>
        <polyline class="cls-2" points="107.17 108.67 89.12 108.67 85.76 105.54 85.76 102.37"/>
        <polyline class="cls-2" points="191.52 108.67 206.56 108.67 216.78 99.72"/>
        <polyline class="cls-2" points="213.09 116.31 220.15 110.42 220.15 101.7"/>
        <g class="cls-28">
          <rect class="cls-19" x="27.78" y="15.83" width="238.64" height="242.68"/>
        </g>
        <g class="cls-12">
          <rect class="cls-19" x="27.78" y="15.83" width="238.64" height="242.68"/>
        </g>
        <g class="cls-15">
          <rect class="cls-19" x="27.78" y="15.83" width="238.64" height="242.68"/>
        </g>
        <g class="cls-13">
          <rect class="cls-19" x="27.78" y="15.83" width="238.64" height="242.68"/>
        </g>
        <g class="cls-14">
          <rect class="cls-19" x="27.78" y="15.83" width="238.64" height="242.68"/>
        </g>
        <g class="cls-17">
          <rect class="cls-19" x="27.78" y="15.83" width="238.64" height="242.68"/>
        </g>
        <g class="cls-16">
          <rect class="cls-19" x="27.78" y="15.83" width="238.64" height="242.68"/>
        </g>
        <path class="cls-1" d="M163.55,82.32v-2.7c-.51.35-1.01.74-1.5,1.14v1.56h1.5Z"/>
        <path class="cls-1" d="M101.38,139.75l-1.75-1.46c-.14.54-.26,1.09-.36,1.66l1.14.95.96-1.15Z"/>
        <path class="cls-6" d="M168.83,162.84c-1.88-2.36-2.94-4.51-2.94-4.51,0,0-1.78,8.02-9.8,14.08-4.48,3.39-6.56,4.2-7.5,4.32v3.07l20.24-16.96Z"/>
        <path class="cls-5" d="M204.91,135.33c1.58,0,2.86-1.28,2.86-2.86s-1.28-2.86-2.86-2.86-2.86,1.28-2.86,2.86,1.28,2.86,2.86,2.86Z"/>
        <path class="cls-4" d="M136.24,52.13c0-1.58-1.28-2.86-2.86-2.86s-2.86,1.28-2.86,2.86,1.28,2.86,2.86,2.86,2.86-1.28,2.86-2.86Z"/>
        <path class="cls-8" d="M165.66,56.65c0-1.58-1.28-2.86-2.86-2.86s-2.86,1.28-2.86,2.86,1.28,2.86,2.86,2.86,2.86-1.28,2.86-2.86Z"/>
        <path class="cls-9" d="M193.8,75.29c0-1.58-1.28-2.86-2.86-2.86s-2.86,1.28-2.86,2.86,1.28,2.86,2.86,2.86,2.86-1.28,2.86-2.86Z"/>
        <path class="cls-10" d="M91.38,130.03c-1.58,0-2.86,1.28-2.86,2.86s1.28,2.86,2.86,2.86,2.86-1.28,2.86-2.86-1.28-2.86-2.86-2.86Z"/>
        <path class="cls-7" d="M106.71,74.46c0-1.58-1.28-2.86-2.86-2.86s-2.86,1.28-2.86,2.86,1.28,2.86,2.86,2.86,2.86-1.28,2.86-2.86Z"/>
        <path class="cls-11" d="M111.88,186.5c-1.58,0-2.86,1.28-2.86,2.86s1.28,2.86,2.86,2.86,2.86-1.28,2.86-2.86-1.28-2.86-2.86-2.86Z"/>
        <path class="cls-25" d="M134.98,181.4c0-1.58-1.28-2.86-2.86-2.86s-2.86,1.28-2.86,2.86,1.28,2.86,2.86,2.86,2.86-1.28,2.86-2.86Z"/>
        <path class="cls-24" d="M147.09,176.71c-.99-.17-3.08-1.05-7.39-4.3-8.02-6.06-9.8-14.08-9.8-14.08,0,0-.99,1.99-2.74,4.25l19.93,17.18v-3.06Z"/>
        <path class="cls-23" d="M224.89,122.86c-6.83-18.74-27.62,1.13-34.16-3.65-6.53-4.78,30.37-32.57,17.6-58.06-11.57-20.48-27.63,7.56-33.91,5.3-6.28-2.26,12.91-48.71-26.34-48.36-39.25.36-19.58,49.54-26.3,48.48s-23.24-24.25-32.57-5.42c-12.77,25.49,24.13,53.27,17.6,58.06s-27.33-15.09-34.16,3.65c-3.48,23.44,44.73,45.27,45.2,54,.29,3.48-19.9-5.09-19.9,3.39,0,17.2,31.72,24.86,30.3,31.99-.11.55-9.92-2.14-10.4,2.73-.45,8.23,23.33,27.54,29.23,29.5v5.14c-1.46.34-2.56,1.65-2.56,3.21,0,1.82,1.48,3.31,3.31,3.31s3.31-1.48,3.31-3.31c0-1.57-1.1-2.87-2.56-3.21v-5.1c5.82-1.75,31.53-21.56,31.09-29.54-.48-4.87-10.29-2.19-10.4-2.73-1.43-7.13,30.3-14.79,30.3-31.99,0-8.48-20.19.09-19.9-3.39.47-8.73,48.68-30.56,45.2-54ZM149.65,252.83c0,1-.81,1.81-1.81,1.81s-1.81-.81-1.81-1.81.81-1.81,1.81-1.81,1.81.81,1.81,1.81ZM169.8,163.98l-21.21,17.77v9.41l8.12-6.81c.32-.27.79-.22,1.06.09.27.32.23.79-.09,1.06l-9.08,7.62v41.51l4.94-4.49-.73-25.3v-.03s0,0,0,0l10-7.53v-11.42c-1.77-.3-3.19-1.64-3.62-3.37-.04-.15-.06-.3-.08-.45,0-.05,0-.1-.01-.15-.02-.16-.05-.32-.05-.49,0-.45.09-.87.21-1.28.03-.11.06-.22.1-.32.05-.13.11-.25.16-.37.03-.06.06-.11.09-.17.77-1.41,2.24-2.38,3.96-2.38s3.19.97,3.96,2.38c.03.06.06.11.09.17.06.12.12.24.16.37.04.1.07.21.1.32.12.41.21.83.21,1.28,0,.17-.03.33-.05.49,0,.05,0,.1-.01.15-.02.15-.05.31-.08.45-.43,1.73-1.85,3.07-3.62,3.37v10.29l10-7.53h5.05c.03-.18.07-.35.13-.53.03-.11.06-.22.1-.32.05-.13.11-.25.16-.37.03-.06.06-.11.09-.17.77-1.41,2.24-2.38,3.96-2.38s3.19.97,3.96,2.38c.03.06.06.11.09.17.06.12.12.24.16.37.04.1.07.21.1.32.12.41.21.83.21,1.28,0,.17-.03.33-.05.49,0,.05,0,.1-.01.15-.02.15-.05.31-.08.45-.49,1.97-2.26,3.43-4.37,3.43s-3.88-1.47-4.37-3.43c-.03-.11-.04-.23-.06-.34h-4.55l-20.49,15.43.69,23.25,11.41-10.35c.31-.28.78-.25,1.06.05.28.31.25.78-.05,1.06l-12.38,11.24-.34.31-6.12,5.56v4.44c0,.41-.34.75-.75.75s-.75-.34-.75-.75v-4.44l-18.26-17.1c-.3-.28-.32-.76-.03-1.06.28-.3.76-.32,1.06-.04l10.84,10.15.66-23.06-20.49-15.43h-4.55c-.02.11-.03.23-.06.34-.49,1.97-2.26,3.43-4.37,3.43s-3.88-1.47-4.37-3.43c-.04-.15-.06-.3-.08-.45,0-.05,0-.1-.01-.15-.02-.16-.05-.32-.05-.49,0-.45.09-.87.21-1.28.03-.11.06-.22.1-.32.05-.13.11-.25.16-.37.03-.06.06-.11.09-.17.77-1.41,2.24-2.38,3.96-2.38s3.19.97,3.96,2.38c.03.06.06.11.09.17.06.12.12.24.16.37.04.1.07.21.1.32.05.17.09.35.13.53h5.05l10,7.53v-10.29c-1.77-.3-3.19-1.64-3.62-3.37-.04-.15-.06-.3-.08-.45,0-.05,0-.1-.01-.15-.02-.16-.05-.32-.05-.49,0-.45.09-.87.21-1.28.03-.11.06-.22.1-.32.05-.13.11-.25.16-.37.03-.06.06-.11.09-.17.77-1.41,2.24-2.38,3.96-2.38s3.19.97,3.96,2.38c.03.06.06.11.09.17.06.12.12.24.16.37.04.1.07.21.1.32.12.41.21.83.21,1.28,0,.17-.03.33-.05.49,0,.05,0,.1-.01.15-.02.15-.05.31-.08.45-.43,1.73-1.85,3.07-3.62,3.37v11.42l10,7.53-.72,25.16,4.94,4.63v-41.51l-8.81-8.52c-.3-.29-.31-.76-.02-1.06.29-.3.76-.31,1.06-.02l7.77,7.51v-9.25l-20.89-18c-2.83,3.25-7.09,6.45-12.16,4.74-6.71-2.26-2.94-11.85-2.94-11.85,0,0-14.08,2.05-12.03-15.33.05-.46.13-.91.21-1.35l-4.68-3.91c-.82.84-1.95,1.37-3.21,1.37-2.12,0-3.88-1.47-4.37-3.43-.04-.15-.06-.3-.08-.45,0-.05,0-.1-.01-.15-.02-.16-.05-.32-.05-.49,0-.45.09-.87.21-1.28.03-.11.06-.22.1-.32.05-.13.11-.25.16-.37.03-.06.06-.11.09-.17.77-1.41,2.24-2.38,3.96-2.38s3.19.97,3.96,2.38c.03.06.06.11.09.17.06.12.12.24.16.37.04.1.07.21.1.32.12.41.21.83.21,1.28,0,.17-.03.33-.05.49,0,.05,0,.1-.01.15-.02.15-.05.31-.08.45-.07.29-.18.56-.3.82l4.18,3.49c3.82-14.77,21.27-17.84,21.27-17.84v-3.3s-10.96-1.51-8.91-10.43c1.79-7.8,7.41-7.54,8.78-7.36.43.03.96.19,1.52.42l-18.38-17.15v-3.66s-.04,0-.06,0c-2.12,0-3.88-1.47-4.37-3.43-.04-.15-.06-.3-.08-.45,0-.05,0-.1-.01-.15-.02-.16-.05-.32-.05-.49,0-.45.09-.87.21-1.28.03-.11.06-.22.1-.32.05-.13.11-.25.16-.37.03-.06.06-.11.09-.17.77-1.41,2.24-2.38,3.96-2.38s3.19.97,3.96,2.38c.03.06.06.11.09.17.06.12.12.24.16.37.04.1.07.21.1.32.12.41.21.83.21,1.28,0,.17-.03.33-.05.49,0,.05,0,.1-.01.15-.02.15-.05.31-.08.45-.36,1.45-1.43,2.63-2.81,3.15v3.29l26.13,24.38,2.11-3.47-6.59-8.02s-14.17-1.6-7.13-14.88c7.18-7.11,15.25,1.18,20.57,7.96l.26-15.19-8.12-7.15v-9.03c-1.77-.3-3.19-1.64-3.62-3.37-.04-.15-.06-.3-.08-.45,0-.05,0-.1-.01-.15-.02-.16-.05-.32-.05-.49,0-.45.09-.87.21-1.28.03-.11.06-.22.1-.32.05-.13.11-.25.16-.37.03-.06.06-.11.09-.17.77-1.41,2.24-2.38,3.96-2.38s3.19.97,3.96,2.38c.03.06.06.11.09.17.06.12.12.24.16.37.04.1.07.21.1.32.12.41.21.83.21,1.28,0,.17-.03.33-.05.49,0,.05,0,.1-.01.15-.02.15-.05.31-.08.45-.43,1.73-1.85,3.07-3.62,3.37v8.36l8.13,7.16-.3,17.77c1.33,1.77,2.42,3.3,3.18,4.2.12.14.97.75,1.95,1.02l.05-50.25c-1.77-.3-3.19-1.64-3.62-3.37-.04-.15-.06-.3-.08-.45,0-.05,0-.1-.01-.15-.02-.16-.05-.32-.05-.49,0-.45.09-.87.21-1.28.03-.11.06-.22.1-.32.05-.13.11-.25.16-.37.03-.06.06-.11.09-.17.77-1.41,2.24-2.38,3.96-2.38s3.19.97,3.96,2.38c.03.06.06.11.09.17.06.12.12.24.16.37.04.1.07.21.1.32.12.41.21.83.21,1.28,0,.17-.03.33-.05.49,0,.05,0,.1-.01.15-.02.15-.05.31-.08.45-.43,1.73-1.85,3.07-3.62,3.37l-.05,50.29c1.02-.22,1.89-.86,2.06-1.06,2.01-2.38,6.31-9.13,11.4-13.32v-19.66c-1.77-.3-3.19-1.64-3.62-3.37-.04-.15-.06-.3-.08-.45,0-.05,0-.1-.01-.15-.02-.16-.05-.32-.05-.49,0-.45.09-.87.21-1.28.03-.11.06-.22.1-.32.05-.13.11-.25.16-.37.03-.06.06-.11.09-.17.77-1.41,2.24-2.38,3.96-2.38s3.19.97,3.96,2.38c.03.06.06.11.09.17.06.12.12.24.16.37.04.1.07.21.1.32.12.41.21.83.21,1.28,0,.17-.03.33-.05.49,0,.05,0,.1-.01.15-.02.15-.05.31-.08.45-.43,1.73-1.85,3.07-3.62,3.37v18.51c3.96-2.74,8.28-3.62,12.32.38,7.04,13.28-7.13,14.88-7.13,14.88l-6.59,8.02,1.89,3.62,26.29-24.53v-2.23c-1.84-.25-3.32-1.61-3.76-3.38-.04-.15-.06-.3-.08-.45,0-.05,0-.1-.01-.15-.02-.16-.05-.32-.05-.49,0-.45.09-.87.21-1.28.03-.11.06-.22.1-.32.05-.13.11-.25.16-.37.03-.06.06-.11.09-.17.77-1.41,2.24-2.38,3.96-2.38s3.19.97,3.96,2.38c.03.06.06.11.09.17.06.12.12.24.16.37.04.1.07.21.1.32.12.41.21.83.21,1.28,0,.17-.03.33-.05.49,0,.05,0,.1-.01.15-.02.15-.05.31-.08.45-.42,1.68-1.78,2.99-3.49,3.34v2.92l-18.2,16.99c.52-.12,1.15-.23,1.96-.31,1.95-.1,6.61.43,8.22,7.41,2.05,8.91-8.91,10.43-8.91,10.43v3.3s17.45,3.07,21.27,17.84l4.68-3.91c-.12-.26-.23-.54-.3-.82-.04-.15-.06-.3-.08-.45,0-.05,0-.1-.01-.15-.02-.16-.05-.32-.05-.49,0-.45.09-.87.21-1.28.03-.11.06-.22.1-.32.05-.13.11-.25.16-.37.03-.06.06-.11.09-.17.77-1.41,2.24-2.38,3.96-2.38s3.19.97,3.96,2.38c.03.06.06.11.09.17.06.12.12.24.16.37.04.1.07.21.1.32.12.41.21.83.21,1.28,0,.17-.03.33-.05.49,0,.05,0,.1-.01.15-.02.15-.05.31-.08.45-.49,1.97-2.26,3.43-4.37,3.43-1.26,0-2.4-.53-3.21-1.37l-5.18,4.33c.08.44.15.89.21,1.36,2.05,17.38-12.03,15.33-12.03,15.33,0,0,3.77,9.59-2.94,11.85-4.94,1.66-9.13-1.34-11.95-4.5ZM128.32,103.03s.04.01.05.02c.03.01.06.03.1.05-.04-.01-.14-.05-.15-.07Z"/>
        <path class="cls-26" d="M183.8,192.22c1.58,0,2.86-1.28,2.86-2.86s-1.28-2.86-2.86-2.86-2.86,1.28-2.86,2.86,1.28,2.86,2.86,2.86Z"/>
        <path class="cls-22" d="M166.42,181.4c0-1.58-1.28-2.86-2.86-2.86s-2.86,1.28-2.86,2.86,1.28,2.86,2.86,2.86,2.86-1.28,2.86-2.86Z"/>
        <path class="cls-27" d="M128.32,103.03s.11.06.15.07c-.04-.02-.07-.04-.1-.05-.02,0-.03-.01-.05-.02Z"/>
        <path class="cls-20" d="M128.32,103.03s.11.06.15.07c-.04-.02-.07-.04-.1-.05-.02,0-.03-.01-.05-.02Z"/>
        <path class="cls-18" d="M95.45,134.8c.12-.26.23-.54.3-.82.04-.15.06-.3.08-.45,0-.05,0-.1.01-.15.02-.16.05-.32.05-.49,0-.45-.09-.87-.21-1.28-.03-.11-.06-.22-.1-.32-.05-.13-.11-.25-.16-.37-.03-.06-.06-.11-.09-.17-.77-1.41-2.24-2.38-3.96-2.38s-3.19.97-3.96,2.38c-.03.06-.06.11-.09.17-.06.12-.12.24-.16.37-.04.1-.07.21-.1.32-.12.41-.21.83-.21,1.28,0,.17.03.33.05.49,0,.05,0,.1.01.15.02.15.05.31.08.45.49,1.97,2.26,3.43,4.37,3.43,1.26,0,2.4-.53,3.21-1.37l4.68,3.91c.1-.57.22-1.12.36-1.66l-4.18-3.49ZM91.38,135.75c-1.58,0-2.86-1.28-2.86-2.86s1.28-2.86,2.86-2.86,2.86,1.28,2.86,2.86-1.28,2.86-2.86,2.86Z"/>
        <path class="cls-18" d="M163.55,61.1c1.77-.3,3.19-1.64,3.62-3.37.04-.15.06-.3.08-.45,0-.05,0-.1.01-.15.02-.16.05-.32.05-.49,0-.45-.09-.87-.21-1.28-.03-.11-.06-.22-.1-.32-.05-.13-.11-.25-.16-.37-.03-.06-.06-.11-.09-.17-.77-1.41-2.24-2.38-3.96-2.38s-3.19.97-3.96,2.38c-.03.06-.06.11-.09.17-.06.12-.12.24-.16.37-.04.1-.07.21-.1.32-.12.41-.21.83-.21,1.28,0,.17.03.33.05.49,0,.05,0,.1.01.15.02.15.05.31.08.45.43,1.73,1.85,3.07,3.62,3.37v19.66c.49-.41.99-.79,1.5-1.14v-18.51ZM159.94,56.65c0-1.58,1.28-2.86,2.86-2.86s2.86,1.28,2.86,2.86-1.28,2.86-2.86,2.86-2.86-1.28-2.86-2.86Z"/>
        <path class="cls-18" d="M155,228.81l.02-.02-.69-23.25,20.49-15.43h4.55c.02.11.03.23.06.34.49,1.97,2.26,3.43,4.37,3.43s3.88-1.47,4.37-3.43c.04-.15.06-.3.08-.45,0-.05,0-.1.01-.15.02-.16.05-.32.05-.49,0-.45-.09-.87-.21-1.28-.03-.11-.06-.22-.1-.32-.05-.13-.11-.25-.16-.37-.03-.06-.06-.11-.09-.17-.77-1.41-2.24-2.38-3.96-2.38s-3.19.97-3.96,2.38c-.03.06-.06.11-.09.17-.06.12-.12.24-.16.37-.04.1-.07.21-.1.32-.05.17-.09.35-.13.53h-5.05l-10,7.53v-10.29c1.77-.3,3.19-1.64,3.62-3.37.04-.15.06-.3.08-.45,0-.05,0-.1.01-.15.02-.16.05-.32.05-.49,0-.45-.09-.87-.21-1.28-.03-.11-.06-.22-.1-.32-.05-.13-.11-.25-.16-.37-.03-.06-.06-.11-.09-.17-.77-1.41-2.24-2.38-3.96-2.38s-3.19.97-3.96,2.38c-.03.06-.06.11-.09.17-.06.12-.12.24-.16.37-.04.1-.07.21-.1.32-.12.41-.21.83-.21,1.28,0,.17.03.33.05.49,0,.05,0,.1.01.15.02.15.05.31.08.45.43,1.73,1.85,3.07,3.62,3.37v11.42l-10,7.53h0s0,.03,0,.03l.73,25.3.02-.02,1.44-1.31ZM183.8,186.5c1.58,0,2.86,1.28,2.86,2.86s-1.28,2.86-2.86,2.86-2.86-1.28-2.86-2.86,1.28-2.86,2.86-2.86ZM160.7,181.4c0-1.58,1.28-2.86,2.86-2.86s2.86,1.28,2.86,2.86-1.28,2.86-2.86,2.86-2.86-1.28-2.86-2.86Z"/>
        <path class="cls-18" d="M142.88,204.81l-10-7.53v-11.42c1.77-.3,3.19-1.64,3.62-3.37.04-.15.06-.3.08-.45,0-.05,0-.1.01-.15.02-.16.05-.32.05-.49,0-.45-.09-.87-.21-1.28-.03-.11-.06-.22-.1-.32-.05-.13-.11-.25-.16-.37-.03-.06-.06-.11-.09-.17-.77-1.41-2.24-2.38-3.96-2.38s-3.19.97-3.96,2.38c-.03.06-.06.11-.09.17-.06.12-.12.24-.16.37-.04.1-.07.21-.1.32-.12.41-.21.83-.21,1.28,0,.17.03.33.05.49,0,.05,0,.1.01.15.02.15.05.31.08.45.43,1.73,1.85,3.07,3.62,3.37v10.29l-10-7.53h-5.05c-.03-.18-.07-.35-.13-.53-.03-.11-.06-.22-.1-.32-.05-.13-.11-.25-.16-.37-.03-.06-.06-.11-.09-.17-.77-1.41-2.24-2.38-3.96-2.38s-3.19.97-3.96,2.38c-.03.06-.06.11-.09.17-.06.12-.12.24-.16.37-.04.1-.07.21-.1.32-.12.41-.21.83-.21,1.28,0,.17.03.33.05.49,0,.05,0,.1.01.15.02.15.05.31.08.45.49,1.97,2.26,3.43,4.37,3.43s3.88-1.47,4.37-3.43c.03-.11.04-.23.06-.34h4.55l20.49,15.43-.66,23.06,1.46,1.37.72-25.16ZM111.88,192.22c-1.58,0-2.86-1.28-2.86-2.86s1.28-2.86,2.86-2.86,2.86,1.28,2.86,2.86-1.28,2.86-2.86,2.86ZM129.26,181.4c0-1.58,1.28-2.86,2.86-2.86s2.86,1.28,2.86,2.86-1.28,2.86-2.86,2.86-2.86-1.28-2.86-2.86Z"/>
        <path class="cls-1" d="M118.53,159.88c-.48,0-.87.39-.87.87s.39.87.87.87.87-.39.87-.87-.39-.87-.87-.87Z"/>
        <path class="cls-1" d="M176.81,160.74c0,.48.39.87.87.87s.87-.39.87-.87-.39-.87-.87-.87-.87.39-.87.87Z"/>
        <path class="cls-1" d="M180.97,134.58c1.8,2.23,2.78,3.44,4.17,4.14.67.34,1.52.44,2.21.45-.95-1.81-2.42-3.87-4.65-6.2-.91-.94-1.99-1.78-3.18-2.53.11,1.2.45,2.9,1.44,4.14Z"/>
        <path class="cls-1" d="M114.07,136.36c1.83-1.26,3.29-4.63,4.06-6.73-1.77.93-3.37,2.04-4.63,3.35-2.17,2.26-3.61,4.26-4.56,6.04,1.45-.6,3.5-1.53,5.13-2.66Z"/>
        <path class="cls-1" d="M119.21,139.79c-.38,0-.69.31-.69.69s.31.69.69.69.69-.31.69-.69-.31-.69-.69-.69Z"/>
        <path class="cls-1" d="M138.97,129.21c-2.19,1.45-4.09,2.71-4.09,2.71-1.72.99-6.31,3.89-7.16,5.56-.58,1.14-.85,2.46-.79,3.92.01.28-.2.51-.48.52,0,0-.01,0-.02,0-.27,0-.49-.21-.5-.48-.07-1.63.23-3.12.9-4.42,1.16-2.27,7.26-5.8,7.53-5.95,0,0,2.02-1.35,4.31-2.85-.11-.41-.19-.84-.24-1.27-2.67,1.02-5.3,2.2-7.83,3.51-2.11,1.1-4.18,2.31-6.18,3.61.02.1.04.21.04.32,0,.79-.65,1.44-1.44,1.44s-1.44-.65-1.44-1.44.65-1.44,1.44-1.44c.32,0,.61.11.85.29,2.03-1.31,4.13-2.54,6.27-3.66,2.65-1.38,5.42-2.61,8.23-3.67,0-.02,0-.03,0-.05,0-.4.03-.78.08-1.17-2.63.18-11.88,1.01-19.01,4.3-.64,1.93-2.36,6.53-4.78,8.19-2.17,1.5-4.96,2.65-6.34,3.17-1.44,3.36-1.1,5.76-.87,7.33l.06.43c.51.67,5.57.96,13.01-1.77,2.02-.74,5.53-2.32,7.32-3.39,8.54-5.08,12.01-10.49,12.51-11.31-.56-.73-1.02-1.55-1.35-2.42ZM111.62,145.49c-.44,0-.8-.36-.8-.8s.36-.8.8-.8.8.36.8.8-.36.8-.8.8ZM119.21,142.17c-.93,0-1.69-.76-1.69-1.69s.76-1.69,1.69-1.69,1.69.76,1.69,1.69-.76,1.69-1.69,1.69Z"/>
        <path class="cls-1" d="M168.74,87.09c.48,0,.87-.39.87-.87s-.39-.87-.87-.87-.87.39-.87.87.39.87.87.87Z"/>
        <path class="cls-1" d="M127.47,87.09c.48,0,.87-.39.87-.87s-.39-.87-.87-.87-.87.39-.87.87.39.87.87.87Z"/>
        <circle class="cls-1" cx="121.13" cy="108.17" r=".87"/>
        <circle class="cls-1" cx="175.07" cy="108.17" r=".87"/>
        <path class="cls-1" d="M111.62,144.49c-.11,0-.2.09-.2.2,0,.22.4.22.4,0,0-.11-.09-.2-.2-.2Z"/>
        <path class="cls-1" d="M183.27,144.72c-.11,0-.2.09-.2.2,0,.22.4.22.4,0,0-.11-.09-.2-.2-.2Z"/>
        <path class="cls-1" d="M187.58,140.18c-.84,0-1.97-.1-2.88-.56-1.59-.8-2.62-2.07-4.47-4.37-1.4-1.74-1.69-4.12-1.74-5.41-7.7-4.24-19.11-5.06-21.12-5.18.05.39.08.79.08,1.19,0,.02,0,.03,0,.05,2.81,1.06,5.58,2.3,8.24,3.68,2.14,1.11,4.24,2.34,6.27,3.66.24-.18.53-.29.85-.29.79,0,1.44.65,1.44,1.44s-.65,1.44-1.44,1.44-1.44-.65-1.44-1.44c0-.11.01-.21.04-.32-2-1.3-4.07-2.51-6.18-3.61-2.53-1.32-5.17-2.49-7.84-3.52-.05.43-.13.86-.24,1.27,2.3,1.52,4.34,2.87,4.34,2.87.23.13,6.34,3.66,7.5,5.94.66,1.3.96,2.78.9,4.42-.01.27-.23.48-.5.48,0,0-.01,0-.02,0-.28-.01-.49-.25-.48-.52.06-1.46-.2-2.78-.79-3.92-.85-1.67-5.44-4.57-7.13-5.54-.02-.01-1.93-1.28-4.13-2.73-.35.93-.84,1.79-1.44,2.55l.44-.24c.03.06,3.35,5.93,12.58,11.43,1.96,1.17,5.57,2.74,7.32,3.39,7.43,2.74,12.5,2.45,13.03,1.72l.04-.37c.23-1.6.59-4.06-.94-7.51-.09,0-.17,0-.26,0ZM176.6,142.17c-.93,0-1.69-.76-1.69-1.69s.76-1.69,1.69-1.69,1.69.76,1.69,1.69-.76,1.69-1.69,1.69ZM183.27,145.72c-.44,0-.8-.36-.8-.8s.36-.8.8-.8.8.36.8.8-.36.8-.8.8Z"/>
        <path class="cls-1" d="M176.6,139.79c-.38,0-.69.31-.69.69s.31.69.69.69.69-.31.69-.69-.31-.69-.69-.69Z"/>
        <path class="cls-18" d="M123.85,133.23c-.24-.18-.53-.29-.85-.29-.79,0-1.44.65-1.44,1.44s.65,1.44,1.44,1.44,1.44-.65,1.44-1.44c0-.11-.01-.21-.04-.32,2-1.29,4.07-2.51,6.18-3.61,2.53-1.32,5.16-2.49,7.83-3.51-.04-.34-.06-.69-.07-1.05-2.81,1.06-5.57,2.29-8.23,3.67-2.14,1.11-4.24,2.34-6.27,3.66Z"/>
        <path class="cls-18" d="M126.83,137.02c-.66,1.3-.97,2.78-.9,4.42.01.27.23.48.5.48,0,0,.01,0,.02,0,.28-.01.49-.25.48-.52-.06-1.46.2-2.78.79-3.92.85-1.67,5.44-4.57,7.16-5.56,0,0,1.9-1.26,4.09-2.71-.12-.32-.23-.65-.31-.99-2.28,1.51-4.31,2.85-4.31,2.85-.26.15-6.36,3.68-7.53,5.95Z"/>
        <path class="cls-18" d="M119.21,138.79c-.93,0-1.69.76-1.69,1.69s.76,1.69,1.69,1.69,1.69-.76,1.69-1.69-.76-1.69-1.69-1.69ZM119.21,141.17c-.38,0-.69-.31-.69-.69s.31-.69.69-.69.69.31.69.69-.31.69-.69.69Z"/>
        <path class="cls-18" d="M111.62,143.89c-.44,0-.8.36-.8.8s.36.8.8.8.8-.36.8-.8-.36-.8-.8-.8ZM111.42,144.69c0-.11.09-.2.2-.2s.2.09.2.2c0,.22-.4.22-.4,0Z"/>
        <path class="cls-18" d="M171.4,134.07c-.02.1-.04.21-.04.32,0,.79.65,1.44,1.44,1.44s1.44-.65,1.44-1.44-.65-1.44-1.44-1.44c-.32,0-.61.11-.85.29-2.03-1.31-4.13-2.55-6.27-3.66-2.66-1.38-5.43-2.61-8.24-3.68,0,.35-.03.7-.07,1.05,2.68,1.03,5.31,2.2,7.84,3.52,2.11,1.1,4.18,2.31,6.18,3.61Z"/>
        <path class="cls-18" d="M168.08,137.48c.58,1.14.85,2.46.79,3.92-.01.28.2.51.48.52,0,0,.01,0,.02,0,.27,0,.49-.21.5-.48.07-1.63-.23-3.12-.9-4.42-1.16-2.27-7.27-5.8-7.5-5.94,0,0-2.04-1.36-4.34-2.87-.09.34-.19.67-.31.99,2.2,1.45,4.1,2.72,4.13,2.73,1.69.98,6.28,3.87,7.13,5.54Z"/>
        <path class="cls-18" d="M176.6,138.79c-.93,0-1.69.76-1.69,1.69s.76,1.69,1.69,1.69,1.69-.76,1.69-1.69-.76-1.69-1.69-1.69ZM176.6,141.17c-.38,0-.69-.31-.69-.69s.31-.69.69-.69.69.31.69.69-.31.69-.69.69Z"/>
        <path class="cls-18" d="M183.27,144.12c-.44,0-.8.36-.8.8s.36.8.8.8.8-.36.8-.8-.36-.8-.8-.8ZM183.07,144.92c0-.11.09-.2.2-.2s.2.09.2.2c0,.22-.4.22-.4,0Z"/>
        <path class="cls-3" d="M127.47,89.09c.45,0,.87-.11,1.25-.3,1.26,1.12,5.21,4.66,7.18,6.67,1.93,1.96,4.3,5.44,5.05,6.56-.26.21-.51.44-.75.68-1.94,1.97-4.76,6.29-2.99,10.05.85,1.81,2.58,2.95,4.85,3.21,1.15.13,1.83-.4,2.48-.92.75-.6,1.52-1.22,3.29-1.17h.08c1.76-.05,2.54.58,3.29,1.17.58.46,1.18.94,2.13.94.11,0,.23,0,.35-.02,2.27-.26,4-1.4,4.85-3.21,1.77-3.76-1.04-8.08-2.99-10.05-.15-.15-.3-.28-.46-.42.44-.67,3.1-4.67,5.22-6.83,1.97-2.01,5.92-5.55,7.18-6.67.38.19.8.3,1.25.3,1.58,0,2.87-1.29,2.87-2.87s-1.29-2.87-2.87-2.87-2.87,1.29-2.87,2.87c0,.4.08.78.23,1.12-1.33,1.19-5.21,4.66-7.23,6.72-2.21,2.25-4.84,6.17-5.42,7.06-1.58-.9-3.43-1.37-5.56-1.37-1.99,0-3.75.4-5.27,1.18-.77-1.16-3.22-4.75-5.29-6.87-2.02-2.05-5.89-5.53-7.22-6.72.15-.34.23-.72.23-1.12,0-1.58-1.29-2.87-2.87-2.87s-2.87,1.29-2.87,2.87,1.29,2.87,2.87,2.87ZM168.74,85.35c.48,0,.87.39.87.87s-.39.87-.87.87-.87-.39-.87-.87.39-.87.87-.87ZM127.47,85.35c.48,0,.87.39.87.87s-.39.87-.87.87-.87-.39-.87-.87.39-.87.87-.87Z"/>
        <path class="cls-3" d="M184.15,131.59c-5.28-5.49-15.41-7.63-21.66-8.45.26-.62.69-1.4,1.31-1.79.65-.42,1.54-.62,2.32-.8.88-.2,1.57-.36,2-.83.34-.37.5-.94.73-1.81.32-1.21.76-2.86,1.72-3.84l3.27-3.33c.38.18.79.29,1.24.29,1.58,0,2.87-1.29,2.87-2.87s-1.29-2.87-2.87-2.87-2.87,1.29-2.87,2.87c0,.4.09.79.24,1.14l-3.31,3.36c-1.33,1.35-1.87,3.38-2.23,4.72-.09.33-.2.74-.27.94-.2.08-.64.18-.97.26-.89.21-2,.46-2.95,1.06-1.33.85-2.01,2.42-2.28,3.24-1.88-.19-3.13-.25-3.32-.25l-.03.68c-1.11-4.04-4.81-7.02-9.19-7.02-4.14,0-7.66,2.65-8.98,6.34-.43.02-1.56.08-3.15.25-.27-.82-.95-2.39-2.28-3.24-.94-.6-2.05-.85-2.94-1.06-.33-.08-.77-.18-.97-.26-.08-.2-.18-.6-.27-.94-.36-1.34-.9-3.37-2.23-4.72l-3.31-3.36c.15-.35.24-.73.24-1.14,0-1.58-1.29-2.87-2.87-2.87s-2.87,1.29-2.87,2.87,1.29,2.87,2.87,2.87c.45,0,.86-.11,1.24-.29l3.27,3.33c.96.98,1.4,2.63,1.72,3.84.23.87.38,1.44.73,1.81.44.47,1.13.62,2,.83.78.18,1.67.38,2.32.8.61.39,1.05,1.17,1.31,1.79-6.26.82-16.39,2.96-21.66,8.45-7.81,8.13-7,13.7-6.61,16.38l.06.4c.06.42.28,1.02,1.04,1.48.77.46,1.99.69,3.53.69,2.94,0,7-.82,11.11-2.33,1.16-.43,3.02-1.21,4.77-2.04l-1.26,7.32-5.15,4.58c-.32-.12-.66-.19-1.01-.19-1.58,0-2.87,1.29-2.87,2.87s1.29,2.87,2.87,2.87,2.87-1.29,2.87-2.87c0-.49-.13-.94-.35-1.34l5.5-4.89,1.63-9.48c.23-.13.46-.25.66-.37,8.03-4.78,11.76-9.77,12.91-11.53.81.68,1.73,1.23,2.74,1.62,0,0,0,0,.01,0,.59.4,1.12,1.19,1.12,1.65,0,.53-1.46,1.6-2.17,2.09-.11.07-.21.14-.32.22-.03.02-.06.04-.06.04h0c-4.03,2.74-6.89,8.57-7.13,13.95-.23,4.94,1.84,10.59,5.16,14.08,2.06,2.16,4.39,3.31,6.75,3.32h.03c2.36,0,4.7-1.14,6.78-3.3,3.34-3.49,5.44-9.15,5.22-14.09-.25-5.61-3.34-11.71-7.65-14.29-.69-.51-2-1.54-2-2.01,0-.36.68-1.41,1.04-1.64,1.14-.43,2.17-1.07,3.06-1.88.94,1.5,4.64,6.75,13.06,11.77.2.12.43.25.66.37l1.63,9.48,5.5,4.89c-.21.4-.35.85-.35,1.34,0,1.58,1.29,2.87,2.87,2.87s2.87-1.29,2.87-2.87-1.29-2.87-2.87-2.87c-.36,0-.7.07-1.01.19l-5.15-4.58-1.26-7.32c1.75.83,3.61,1.62,4.77,2.04,4.1,1.51,8.17,2.33,11.11,2.33,1.53,0,2.76-.22,3.53-.69.76-.46.99-1.06,1.04-1.48l.06-.4c.39-2.68,1.2-8.25-6.61-16.38ZM175.07,107.3c.48,0,.87.39.87.87s-.39.87-.87.87-.87-.39-.87-.87.39-.87.87-.87ZM121.13,109.04c-.48,0-.87-.39-.87-.87s.39-.87.87-.87.87.39.87.87-.39.87-.87.87ZM118.53,161.61c-.48,0-.87-.39-.87-.87s.39-.87.87-.87.87.39.87.87-.39.87-.87.87ZM178.54,160.74c0,.48-.39.87-.87.87s-.87-.39-.87-.87.39-.87.87-.87.87.39.87.87ZM187.36,139.17c-.69-.02-1.54-.12-2.21-.45-1.4-.7-2.37-1.91-4.17-4.14-.99-1.23-1.33-2.93-1.44-4.14,1.19.74,2.27,1.58,3.18,2.53,2.23,2.33,3.7,4.39,4.65,6.2ZM113.5,132.97c1.26-1.31,2.86-2.42,4.63-3.35-.77,2.1-2.23,5.47-4.06,6.73-1.63,1.12-3.68,2.06-5.13,2.66.95-1.77,2.39-3.78,4.56-6.04ZM127.81,142.95c-1.79,1.07-5.3,2.64-7.32,3.39-7.43,2.74-12.5,2.45-13.01,1.77l-.06-.43c-.23-1.57-.57-3.98.87-7.33,1.38-.52,4.17-1.67,6.34-3.17,2.42-1.67,4.14-6.26,4.78-8.19,7.13-3.29,16.38-4.12,19.01-4.3-.05.38-.08.77-.08,1.17,0,.02,0,.03,0,.05,0,.35.03.7.07,1.05.05.43.14.86.24,1.27.09.34.19.67.31.99.33.88.79,1.69,1.35,2.42-.5.82-3.97,6.23-12.51,11.31ZM140.54,153.94c-.55,0-1-.45-1-1s.45-1,1-1h14.9c.55,0,1,.45,1,1s-.45,1-1,1h-14.9ZM154.37,159.09c0,.55-.45,1-1,1h-10.77c-.55,0-1-.45-1-1s.45-1,1-1h10.77c.55,0,1,.45,1,1ZM188.78,147.68l-.04.37c-.52.73-5.59,1.02-13.03-1.72-1.75-.64-5.36-2.22-7.32-3.39-9.23-5.49-12.55-11.37-12.58-11.43l-.44.24c.61-.76,1.09-1.62,1.44-2.55.12-.32.23-.65.31-.99.11-.41.19-.84.24-1.27.04-.34.06-.69.07-1.05,0-.02,0-.03,0-.05,0-.4-.03-.8-.08-1.19,2.02.11,13.43.94,21.12,5.18.05,1.28.34,3.67,1.74,5.41,1.86,2.3,2.88,3.57,4.47,4.37.91.46,2.04.56,2.88.56.09,0,.18,0,.26,0,1.53,3.45,1.18,5.91.94,7.51Z"/>
        <path class="cls-21" d="M150.76,40.39c0-1.58-1.28-2.86-2.86-2.86s-2.86,1.28-2.86,2.86,1.28,2.86,2.86,2.86,2.86-1.28,2.86-2.86Z"/>
      </g>
    </g>
  </g>
</svg>